M48
; DRILL file {KiCad (6.0.1)} date Thu Mar 31 21:17:07 2022
; FORMAT={-:-/ absolute / metric / decimal}
; #@! TF.CreationDate,2022-03-31T21:17:07+02:00
; #@! TF.GenerationSoftware,Kicad,Pcbnew,(6.0.1)
; #@! TF.FileFunction,Plated,1,2,PTH
FMAT,2
METRIC
; #@! TA.AperFunction,Plated,PTH,ViaDrill
T1C0.400
; #@! TA.AperFunction,Plated,PTH,ComponentDrill
T2C0.800
; #@! TA.AperFunction,Plated,PTH,ComponentDrill
T3C0.900
; #@! TA.AperFunction,Plated,PTH,ComponentDrill
T4C1.000
; #@! TA.AperFunction,Plated,PTH,ComponentDrill
T5C1.100
; #@! TA.AperFunction,Plated,PTH,ComponentDrill
T6C1.300
; #@! TA.AperFunction,Plated,PTH,ComponentDrill
T7C6.100
%
G90
G05
T1
X134.318Y-119.0
X143.589Y-128.03
X146.002Y-128.03
X146.51Y-56.91
X158.702Y-86.882
X159.718Y-71.896
X160.988Y-72.912
X160.988Y-86.882
X164.036Y-73.928
X171.402Y-128.157
X182.324Y-118.886
T2
X121.618Y-93.74
X124.412Y-48.782
X124.412Y-56.402
X124.412Y-133.618
X124.412Y-141.238
X129.238Y-81.69
X129.238Y-89.31
X129.238Y-93.74
T3
X105.357Y-135.523
X105.362Y-54.37
X107.897Y-135.523
X107.902Y-54.37
T4
X135.69Y-124.5
X138.23Y-124.5
X149.177Y-124.5
X151.717Y-124.5
X154.257Y-124.5
X154.92Y-54.46
X154.92Y-57.0
X157.46Y-54.46
X157.46Y-57.0
X160.0Y-54.46
X160.0Y-57.0
X162.54Y-54.46
X162.54Y-57.0
X164.173Y-124.474
X165.08Y-54.46
X165.08Y-57.0
X166.713Y-124.474
X169.253Y-124.474
X180.96Y-124.474
X183.5Y-124.474
X192.5Y-58.2
X192.5Y-60.74
X192.5Y-63.28
X192.5Y-65.82
X192.5Y-71.92
X192.5Y-74.46
X192.5Y-77.0
X192.5Y-82.475
X192.5Y-85.015
X192.5Y-87.555
X192.5Y-93.475
X192.5Y-96.015
X192.5Y-98.555
X192.5Y-103.92
X192.5Y-106.46
X192.5Y-109.0
X192.5Y-114.475
X192.5Y-117.015
X192.5Y-119.555
X192.5Y-124.92
X192.5Y-127.46
X192.5Y-130.0
X192.5Y-132.54
T5
X111.763Y-93.72
X114.303Y-93.72
X116.843Y-93.72
X131.42Y-50.0
X133.96Y-50.0
X136.5Y-50.0
X140.922Y-139.46
X142.5Y-50.0
X143.462Y-139.46
X145.04Y-50.0
X146.002Y-139.46
X147.58Y-50.0
X169.96Y-50.0
X171.96Y-139.46
X172.5Y-50.0
X174.5Y-139.46
X175.04Y-50.0
X177.04Y-139.46
X180.96Y-50.0
X183.5Y-50.0
X186.04Y-50.0
T6
X113.485Y-137.885
X113.495Y-52.135
X118.565Y-137.885
X118.575Y-52.135
T7
X106.216Y-67.5
X106.216Y-85.0
X106.216Y-102.5
X106.216Y-120.0
X121.216Y-67.5
X121.216Y-85.0
X121.216Y-102.5
X121.216Y-120.0
X137.23Y-67.5
X137.23Y-82.5
X137.23Y-97.5
X137.23Y-112.5
X152.23Y-67.5
X152.23Y-82.5
X152.23Y-97.5
X152.23Y-112.5
X167.23Y-67.5
X167.23Y-82.5
X167.23Y-97.5
X167.23Y-112.5
X182.23Y-67.5
X182.23Y-82.5
X182.23Y-97.5
X182.23Y-112.5
T0
M30
