G04 #@! TF.GenerationSoftware,KiCad,Pcbnew,(6.0.1)*
G04 #@! TF.CreationDate,2022-04-02T15:14:41+02:00*
G04 #@! TF.ProjectId,Breadboard,42726561-6462-46f6-9172-642e6b696361,v1.0*
G04 #@! TF.SameCoordinates,Original*
G04 #@! TF.FileFunction,Legend,Top*
G04 #@! TF.FilePolarity,Positive*
%FSLAX46Y46*%
G04 Gerber Fmt 4.6, Leading zero omitted, Abs format (unit mm)*
G04 Created by KiCad (PCBNEW (6.0.1)) date 2022-04-02 15:14:41*
%MOMM*%
%LPD*%
G01*
G04 APERTURE LIST*
%ADD10C,0.300000*%
%ADD11C,0.150000*%
%ADD12C,0.120000*%
%ADD13R,1.700000X1.700000*%
%ADD14O,1.700000X1.700000*%
%ADD15C,10.160000*%
%ADD16R,1.800000X1.800000*%
%ADD17C,1.800000*%
%ADD18C,3.200000*%
%ADD19C,1.600000*%
%ADD20O,1.600000X1.600000*%
%ADD21R,2.100000X2.100000*%
%ADD22C,2.100000*%
%ADD23R,1.905000X2.000000*%
%ADD24O,1.905000X2.000000*%
%ADD25R,2.600000X2.600000*%
%ADD26C,2.600000*%
G04 APERTURE END LIST*
D10*
X116500000Y-60000000D02*
G75*
G03*
X114500000Y-62000000I-1J-1999999D01*
G01*
X186999999Y-119500001D02*
G75*
G03*
X188999999Y-117500001I1J1999999D01*
G01*
X186999999Y-119500001D02*
X162500000Y-119500001D01*
X179500000Y-106000001D02*
X187000000Y-106000001D01*
X159000000Y-108000000D02*
G75*
G03*
X157000000Y-106000000I-1999999J1D01*
G01*
X110999997Y-128000027D02*
G75*
G03*
X112999997Y-126000027I1J1999999D01*
G01*
X114500001Y-90499999D02*
X114500000Y-62000000D01*
X191214000Y-63260000D02*
X189944000Y-63260000D01*
X156999999Y-119500000D02*
G75*
G03*
X158999999Y-117500000I1J1999999D01*
G01*
X149500000Y-106000000D02*
X157000000Y-106000000D01*
X172000003Y-104585786D02*
G75*
G03*
X174000003Y-102585786I1J1999999D01*
G01*
X132500000Y-104499999D02*
X142000000Y-104500000D01*
X162500003Y-104585785D02*
X172000003Y-104585786D01*
X188166000Y-61482000D02*
X188166000Y-57672000D01*
X128000000Y-126000000D02*
X128000000Y-97000000D01*
X126000000Y-60000000D02*
X125000003Y-59999973D01*
X147500003Y-104585785D02*
X157000003Y-104585786D01*
X126000000Y-92500000D02*
G75*
G03*
X128000000Y-90500000I1J1999999D01*
G01*
X112999997Y-62000027D02*
G75*
G03*
X110999997Y-60000027I-1999999J1D01*
G01*
X128000000Y-97000000D02*
G75*
G03*
X126000000Y-95000000I-1999999J1D01*
G01*
X186388000Y-61990000D02*
X186388000Y-57672000D01*
X116500000Y-95000000D02*
G75*
G03*
X114500000Y-97000000I-1J-1999999D01*
G01*
X114500000Y-97000000D02*
X114500000Y-126000000D01*
X178500000Y-75500000D02*
X179000000Y-75500000D01*
X128000000Y-62000000D02*
X128000000Y-90500000D01*
X99499998Y-126000026D02*
G75*
G03*
X101499998Y-128000026I1999999J-1D01*
G01*
X101499997Y-60000027D02*
G75*
G03*
X99499997Y-62000027I-1J-1999999D01*
G01*
X145500004Y-102585785D02*
X145500000Y-77500000D01*
X191214000Y-60720000D02*
X189944000Y-60720000D01*
X130500001Y-102499999D02*
G75*
G03*
X132500001Y-104499999I1999999J-1D01*
G01*
X132500000Y-106000000D02*
G75*
G03*
X130500000Y-108000000I-1J-1999999D01*
G01*
X162500000Y-106000001D02*
X170500000Y-106000001D01*
X126000000Y-95000000D02*
X116500000Y-95000000D01*
X189944000Y-60720000D02*
X189944000Y-57672000D01*
X117500000Y-60000000D02*
X116500003Y-59999973D01*
X188999999Y-117500001D02*
X189000000Y-108000001D01*
X110999997Y-60000027D02*
X110000000Y-60000000D01*
X132499997Y-75414214D02*
G75*
G03*
X130499997Y-77414214I-1J-1999999D01*
G01*
X114500000Y-126000000D02*
G75*
G03*
X116500000Y-128000000I1999999J-1D01*
G01*
X114500001Y-90499999D02*
G75*
G03*
X116500001Y-92499999I1999999J-1D01*
G01*
X147500000Y-75500000D02*
G75*
G03*
X145500000Y-77500000I-1J-1999999D01*
G01*
X162500000Y-75500000D02*
G75*
G03*
X160500000Y-77500000I-1J-1999999D01*
G01*
X157000003Y-104585786D02*
G75*
G03*
X159000003Y-102585786I1J1999999D01*
G01*
X159000000Y-77500000D02*
X159000003Y-102585786D01*
X130500000Y-117500000D02*
G75*
G03*
X132500000Y-119500000I1999999J-1D01*
G01*
X175500004Y-102585785D02*
G75*
G03*
X177500004Y-104585785I1999999J-1D01*
G01*
X130500000Y-108000000D02*
X130499973Y-117499997D01*
X175500004Y-102585785D02*
X175500000Y-77500000D01*
X159000000Y-77500000D02*
G75*
G03*
X157000000Y-75500000I-1999999J1D01*
G01*
X143999997Y-77414214D02*
X144000000Y-102500000D01*
X132500000Y-106000000D02*
X140500000Y-106000000D01*
X128000000Y-62000000D02*
G75*
G03*
X126000000Y-60000000I-1999999J1D01*
G01*
X189000000Y-77500000D02*
G75*
G03*
X187000000Y-75500000I-1999999J1D01*
G01*
X189944000Y-63260000D02*
X188166000Y-61482000D01*
X174000000Y-77500000D02*
G75*
G03*
X172000000Y-75500000I-1999999J1D01*
G01*
X187000003Y-104585786D02*
G75*
G03*
X189000003Y-102585786I1J1999999D01*
G01*
X160500004Y-102585785D02*
G75*
G03*
X162500004Y-104585785I1999999J-1D01*
G01*
X160500000Y-117500001D02*
G75*
G03*
X162500000Y-119500001I1999999J-1D01*
G01*
X158999999Y-117500000D02*
X159000000Y-108000000D01*
X126000000Y-128000000D02*
G75*
G03*
X128000000Y-126000000I1J1999999D01*
G01*
X99500000Y-62000027D02*
X99500000Y-126000027D01*
X177500000Y-75500000D02*
G75*
G03*
X175500000Y-77500000I-1J-1999999D01*
G01*
X113000000Y-126000027D02*
X113000000Y-62000027D01*
X189944000Y-65800000D02*
X186388000Y-61990000D01*
X187000000Y-75500000D02*
X185500000Y-75500000D01*
X142000000Y-104500000D02*
G75*
G03*
X144000000Y-102500000I1J1999999D01*
G01*
X130500001Y-102499999D02*
X130499997Y-77414214D01*
X102500000Y-60000000D02*
X101499997Y-60000027D01*
X177500003Y-104585785D02*
X187000003Y-104585786D01*
X160500000Y-108000001D02*
X160499973Y-117499998D01*
X116500000Y-92499999D02*
X126000000Y-92500000D01*
X174000000Y-77500000D02*
X174000003Y-102585786D01*
X101500000Y-128000026D02*
X111000000Y-128000027D01*
X191214000Y-65800000D02*
X189944000Y-65800000D01*
X189000000Y-108000001D02*
G75*
G03*
X187000000Y-106000001I-1999999J1D01*
G01*
X156999999Y-119500000D02*
X132500000Y-119500000D01*
X143999997Y-77414214D02*
G75*
G03*
X141999997Y-75414214I-1999999J1D01*
G01*
X177500000Y-75500000D02*
X178500000Y-75500000D01*
X145500004Y-102585785D02*
G75*
G03*
X147500004Y-104585785I1999999J-1D01*
G01*
X160500004Y-102585785D02*
X160500000Y-77500000D01*
X162500000Y-106000001D02*
G75*
G03*
X160500000Y-108000001I-1J-1999999D01*
G01*
X189000000Y-77500000D02*
X189000003Y-102585786D01*
X118842857Y-59014285D02*
X119442857Y-60814285D01*
X120042857Y-59014285D01*
X120214285Y-60985714D02*
X121585714Y-60985714D01*
X122014285Y-60814285D02*
X122014285Y-59014285D01*
X122871428Y-60814285D02*
X122871428Y-59014285D01*
X123900000Y-60814285D01*
X123900000Y-59014285D01*
D11*
X190301142Y-56020761D02*
X190348761Y-56068380D01*
X190396380Y-56211238D01*
X190396380Y-56306476D01*
X190348761Y-56449333D01*
X190253523Y-56544571D01*
X190158285Y-56592190D01*
X189967809Y-56639809D01*
X189824952Y-56639809D01*
X189634476Y-56592190D01*
X189539238Y-56544571D01*
X189444000Y-56449333D01*
X189396380Y-56306476D01*
X189396380Y-56211238D01*
X189444000Y-56068380D01*
X189491619Y-56020761D01*
X190110666Y-55639809D02*
X190110666Y-55163619D01*
X190396380Y-55735047D02*
X189396380Y-55401714D01*
X190396380Y-55068380D01*
X190396380Y-54735047D02*
X189396380Y-54735047D01*
X190396380Y-54163619D01*
X189396380Y-54163619D01*
X190396380Y-53163619D02*
X190396380Y-53735047D01*
X190396380Y-53449333D02*
X189396380Y-53449333D01*
X189539238Y-53544571D01*
X189634476Y-53639809D01*
X189682095Y-53735047D01*
X190491619Y-52973142D02*
X190491619Y-52211238D01*
X190396380Y-51496952D02*
X190396380Y-51973142D01*
X189396380Y-51973142D01*
D10*
X141178571Y-106678571D02*
X141178571Y-105178571D01*
X141750000Y-105178571D01*
X141892857Y-105250000D01*
X141964285Y-105321428D01*
X142035714Y-105464285D01*
X142035714Y-105678571D01*
X141964285Y-105821428D01*
X141892857Y-105892857D01*
X141750000Y-105964285D01*
X141178571Y-105964285D01*
X142964285Y-105178571D02*
X143250000Y-105178571D01*
X143392857Y-105250000D01*
X143535714Y-105392857D01*
X143607142Y-105678571D01*
X143607142Y-106178571D01*
X143535714Y-106464285D01*
X143392857Y-106607142D01*
X143250000Y-106678571D01*
X142964285Y-106678571D01*
X142821428Y-106607142D01*
X142678571Y-106464285D01*
X142607142Y-106178571D01*
X142607142Y-105678571D01*
X142678571Y-105392857D01*
X142821428Y-105250000D01*
X142964285Y-105178571D01*
X145107142Y-106678571D02*
X144607142Y-105964285D01*
X144250000Y-106678571D02*
X144250000Y-105178571D01*
X144821428Y-105178571D01*
X144964285Y-105250000D01*
X145035714Y-105321428D01*
X145107142Y-105464285D01*
X145107142Y-105678571D01*
X145035714Y-105821428D01*
X144964285Y-105892857D01*
X144821428Y-105964285D01*
X144250000Y-105964285D01*
X145535714Y-105178571D02*
X146392857Y-105178571D01*
X145964285Y-106678571D02*
X145964285Y-105178571D01*
X146535714Y-106821428D02*
X147678571Y-106821428D01*
X148035714Y-106678571D02*
X148035714Y-105178571D01*
X148392857Y-105178571D01*
X148607142Y-105250000D01*
X148750000Y-105392857D01*
X148821428Y-105535714D01*
X148892857Y-105821428D01*
X148892857Y-106035714D01*
X148821428Y-106321428D01*
X148750000Y-106464285D01*
X148607142Y-106607142D01*
X148392857Y-106678571D01*
X148035714Y-106678571D01*
X180858571Y-74100000D02*
X180687142Y-74014285D01*
X180430000Y-74014285D01*
X180172857Y-74100000D01*
X180001428Y-74271428D01*
X179915714Y-74442857D01*
X179830000Y-74785714D01*
X179830000Y-75042857D01*
X179915714Y-75385714D01*
X180001428Y-75557142D01*
X180172857Y-75728571D01*
X180430000Y-75814285D01*
X180601428Y-75814285D01*
X180858571Y-75728571D01*
X180944285Y-75642857D01*
X180944285Y-75042857D01*
X180601428Y-75042857D01*
X181715714Y-75814285D02*
X181715714Y-74014285D01*
X182744285Y-75814285D01*
X182744285Y-74014285D01*
X183601428Y-75814285D02*
X183601428Y-74014285D01*
X184030000Y-74014285D01*
X184287142Y-74100000D01*
X184458571Y-74271428D01*
X184544285Y-74442857D01*
X184630000Y-74785714D01*
X184630000Y-75042857D01*
X184544285Y-75385714D01*
X184458571Y-75557142D01*
X184287142Y-75728571D01*
X184030000Y-75814285D01*
X183601428Y-75814285D01*
D11*
X154761904Y-59416666D02*
X155238095Y-59416666D01*
X154666666Y-59702380D02*
X155000000Y-58702380D01*
X155333333Y-59702380D01*
X162238095Y-59702380D02*
X162238095Y-58702380D01*
X162476190Y-58702380D01*
X162619047Y-58750000D01*
X162714285Y-58845238D01*
X162761904Y-58940476D01*
X162809523Y-59130952D01*
X162809523Y-59273809D01*
X162761904Y-59464285D01*
X162714285Y-59559523D01*
X162619047Y-59654761D01*
X162476190Y-59702380D01*
X162238095Y-59702380D01*
D10*
X134642857Y-61035714D02*
X134571428Y-61107142D01*
X134357142Y-61178571D01*
X134214285Y-61178571D01*
X134000000Y-61107142D01*
X133857142Y-60964285D01*
X133785714Y-60821428D01*
X133714285Y-60535714D01*
X133714285Y-60321428D01*
X133785714Y-60035714D01*
X133857142Y-59892857D01*
X134000000Y-59750000D01*
X134214285Y-59678571D01*
X134357142Y-59678571D01*
X134571428Y-59750000D01*
X134642857Y-59821428D01*
X135214285Y-60750000D02*
X135928571Y-60750000D01*
X135071428Y-61178571D02*
X135571428Y-59678571D01*
X136071428Y-61178571D01*
X136571428Y-61178571D02*
X136571428Y-59678571D01*
X137428571Y-61178571D01*
X137428571Y-59678571D01*
X138928571Y-61178571D02*
X138071428Y-61178571D01*
X138500000Y-61178571D02*
X138500000Y-59678571D01*
X138357142Y-59892857D01*
X138214285Y-60035714D01*
X138071428Y-60107142D01*
X139214285Y-61321428D02*
X140357142Y-61321428D01*
X141428571Y-61178571D02*
X140714285Y-61178571D01*
X140714285Y-59678571D01*
D11*
X192428380Y-56060571D02*
X192428380Y-56536761D01*
X191428380Y-56536761D01*
X192428380Y-55727238D02*
X191428380Y-55727238D01*
X192428380Y-55251047D02*
X191428380Y-55251047D01*
X192428380Y-54679619D01*
X191428380Y-54679619D01*
X192428380Y-53679619D02*
X192428380Y-54251047D01*
X192428380Y-53965333D02*
X191428380Y-53965333D01*
X191571238Y-54060571D01*
X191666476Y-54155809D01*
X191714095Y-54251047D01*
D10*
X166642857Y-61035714D02*
X166571428Y-61107142D01*
X166357142Y-61178571D01*
X166214285Y-61178571D01*
X166000000Y-61107142D01*
X165857142Y-60964285D01*
X165785714Y-60821428D01*
X165714285Y-60535714D01*
X165714285Y-60321428D01*
X165785714Y-60035714D01*
X165857142Y-59892857D01*
X166000000Y-59750000D01*
X166214285Y-59678571D01*
X166357142Y-59678571D01*
X166571428Y-59750000D01*
X166642857Y-59821428D01*
X167214285Y-60750000D02*
X167928571Y-60750000D01*
X167071428Y-61178571D02*
X167571428Y-59678571D01*
X168071428Y-61178571D01*
X168571428Y-61178571D02*
X168571428Y-59678571D01*
X169428571Y-61178571D01*
X169428571Y-59678571D01*
X170071428Y-59821428D02*
X170142857Y-59750000D01*
X170285714Y-59678571D01*
X170642857Y-59678571D01*
X170785714Y-59750000D01*
X170857142Y-59821428D01*
X170928571Y-59964285D01*
X170928571Y-60107142D01*
X170857142Y-60321428D01*
X170000000Y-61178571D01*
X170928571Y-61178571D01*
X171214285Y-61321428D02*
X172357142Y-61321428D01*
X173428571Y-61178571D02*
X172714285Y-61178571D01*
X172714285Y-59678571D01*
D11*
X160309523Y-59607142D02*
X160261904Y-59654761D01*
X160119047Y-59702380D01*
X160023809Y-59702380D01*
X159880952Y-59654761D01*
X159785714Y-59559523D01*
X159738095Y-59464285D01*
X159690476Y-59273809D01*
X159690476Y-59130952D01*
X159738095Y-58940476D01*
X159785714Y-58845238D01*
X159880952Y-58750000D01*
X160023809Y-58702380D01*
X160119047Y-58702380D01*
X160261904Y-58750000D01*
X160309523Y-58797619D01*
D10*
X180607142Y-61178571D02*
X179892857Y-61178571D01*
X179892857Y-59678571D01*
X181107142Y-61178571D02*
X181107142Y-59678571D01*
X181821428Y-61178571D02*
X181821428Y-59678571D01*
X182678571Y-61178571D01*
X182678571Y-59678571D01*
X183321428Y-59821428D02*
X183392857Y-59750000D01*
X183535714Y-59678571D01*
X183892857Y-59678571D01*
X184035714Y-59750000D01*
X184107142Y-59821428D01*
X184178571Y-59964285D01*
X184178571Y-60107142D01*
X184107142Y-60321428D01*
X183250000Y-61178571D01*
X184178571Y-61178571D01*
D11*
X160452380Y-52664404D02*
X159452380Y-52664404D01*
X159452380Y-52426309D01*
X159500000Y-52283452D01*
X159595238Y-52188214D01*
X159690476Y-52140595D01*
X159880952Y-52092976D01*
X160023809Y-52092976D01*
X160214285Y-52140595D01*
X160309523Y-52188214D01*
X160404761Y-52283452D01*
X160452380Y-52426309D01*
X160452380Y-52664404D01*
X160547619Y-51902500D02*
X160547619Y-51140595D01*
X160452380Y-50902500D02*
X159452380Y-50902500D01*
X160452380Y-50426309D02*
X159452380Y-50426309D01*
X160452380Y-49854880D01*
X159452380Y-49854880D01*
X159547619Y-49426309D02*
X159500000Y-49378690D01*
X159452380Y-49283452D01*
X159452380Y-49045357D01*
X159500000Y-48950119D01*
X159547619Y-48902500D01*
X159642857Y-48854880D01*
X159738095Y-48854880D01*
X159880952Y-48902500D01*
X160452380Y-49473928D01*
X160452380Y-48854880D01*
D10*
X171250000Y-106678571D02*
X171250000Y-105178571D01*
X171821428Y-105178571D01*
X171964285Y-105250000D01*
X172035714Y-105321428D01*
X172107142Y-105464285D01*
X172107142Y-105678571D01*
X172035714Y-105821428D01*
X171964285Y-105892857D01*
X171821428Y-105964285D01*
X171250000Y-105964285D01*
X173035714Y-105178571D02*
X173321428Y-105178571D01*
X173464285Y-105250000D01*
X173607142Y-105392857D01*
X173678571Y-105678571D01*
X173678571Y-106178571D01*
X173607142Y-106464285D01*
X173464285Y-106607142D01*
X173321428Y-106678571D01*
X173035714Y-106678571D01*
X172892857Y-106607142D01*
X172750000Y-106464285D01*
X172678571Y-106178571D01*
X172678571Y-105678571D01*
X172750000Y-105392857D01*
X172892857Y-105250000D01*
X173035714Y-105178571D01*
X175178571Y-106678571D02*
X174678571Y-105964285D01*
X174321428Y-106678571D02*
X174321428Y-105178571D01*
X174892857Y-105178571D01*
X175035714Y-105250000D01*
X175107142Y-105321428D01*
X175178571Y-105464285D01*
X175178571Y-105678571D01*
X175107142Y-105821428D01*
X175035714Y-105892857D01*
X174892857Y-105964285D01*
X174321428Y-105964285D01*
X175607142Y-105178571D02*
X176464285Y-105178571D01*
X176035714Y-106678571D02*
X176035714Y-105178571D01*
X176607142Y-106821428D02*
X177750000Y-106821428D01*
X178107142Y-105892857D02*
X178607142Y-105892857D01*
X178821428Y-106678571D02*
X178107142Y-106678571D01*
X178107142Y-105178571D01*
X178821428Y-105178571D01*
X150107142Y-61178571D02*
X149392857Y-61178571D01*
X149392857Y-59678571D01*
X150607142Y-61178571D02*
X150607142Y-59678571D01*
X151321428Y-61178571D02*
X151321428Y-59678571D01*
X152178571Y-61178571D01*
X152178571Y-59678571D01*
X153678571Y-61178571D02*
X152821428Y-61178571D01*
X153250000Y-61178571D02*
X153250000Y-59678571D01*
X153107142Y-59892857D01*
X152964285Y-60035714D01*
X152821428Y-60107142D01*
D11*
X188618380Y-56060571D02*
X188618380Y-56536761D01*
X187618380Y-56536761D01*
X188618380Y-55727238D02*
X187618380Y-55727238D01*
X188618380Y-55251047D02*
X187618380Y-55251047D01*
X188618380Y-54679619D01*
X187618380Y-54679619D01*
X187713619Y-54251047D02*
X187666000Y-54203428D01*
X187618380Y-54108190D01*
X187618380Y-53870095D01*
X187666000Y-53774857D01*
X187713619Y-53727238D01*
X187808857Y-53679619D01*
X187904095Y-53679619D01*
X188046952Y-53727238D01*
X188618380Y-54298666D01*
X188618380Y-53679619D01*
X157952380Y-52664404D02*
X156952380Y-52664404D01*
X156952380Y-52426309D01*
X157000000Y-52283452D01*
X157095238Y-52188214D01*
X157190476Y-52140595D01*
X157380952Y-52092976D01*
X157523809Y-52092976D01*
X157714285Y-52140595D01*
X157809523Y-52188214D01*
X157904761Y-52283452D01*
X157952380Y-52426309D01*
X157952380Y-52664404D01*
X158047619Y-51902500D02*
X158047619Y-51140595D01*
X157952380Y-50902500D02*
X156952380Y-50902500D01*
X157952380Y-50426309D02*
X156952380Y-50426309D01*
X157952380Y-49854880D01*
X156952380Y-49854880D01*
X157952380Y-48854880D02*
X157952380Y-49426309D01*
X157952380Y-49140595D02*
X156952380Y-49140595D01*
X157095238Y-49235833D01*
X157190476Y-49331071D01*
X157238095Y-49426309D01*
X157571428Y-59178571D02*
X157714285Y-59226190D01*
X157761904Y-59273809D01*
X157809523Y-59369047D01*
X157809523Y-59511904D01*
X157761904Y-59607142D01*
X157714285Y-59654761D01*
X157619047Y-59702380D01*
X157238095Y-59702380D01*
X157238095Y-58702380D01*
X157571428Y-58702380D01*
X157666666Y-58750000D01*
X157714285Y-58797619D01*
X157761904Y-58892857D01*
X157761904Y-58988095D01*
X157714285Y-59083333D01*
X157666666Y-59130952D01*
X157571428Y-59178571D01*
X157238095Y-59178571D01*
D10*
X104878571Y-59100000D02*
X104707142Y-59014285D01*
X104450000Y-59014285D01*
X104192857Y-59100000D01*
X104021428Y-59271428D01*
X103935714Y-59442857D01*
X103850000Y-59785714D01*
X103850000Y-60042857D01*
X103935714Y-60385714D01*
X104021428Y-60557142D01*
X104192857Y-60728571D01*
X104450000Y-60814285D01*
X104621428Y-60814285D01*
X104878571Y-60728571D01*
X104964285Y-60642857D01*
X104964285Y-60042857D01*
X104621428Y-60042857D01*
X105735714Y-60814285D02*
X105735714Y-59014285D01*
X106764285Y-60814285D01*
X106764285Y-59014285D01*
X107621428Y-60814285D02*
X107621428Y-59014285D01*
X108050000Y-59014285D01*
X108307142Y-59100000D01*
X108478571Y-59271428D01*
X108564285Y-59442857D01*
X108650000Y-59785714D01*
X108650000Y-60042857D01*
X108564285Y-60385714D01*
X108478571Y-60557142D01*
X108307142Y-60728571D01*
X108050000Y-60814285D01*
X107621428Y-60814285D01*
X133515714Y-75678571D02*
X133515714Y-74178571D01*
X134087142Y-74178571D01*
X134230000Y-74250000D01*
X134301428Y-74321428D01*
X134372857Y-74464285D01*
X134372857Y-74678571D01*
X134301428Y-74821428D01*
X134230000Y-74892857D01*
X134087142Y-74964285D01*
X133515714Y-74964285D01*
X135301428Y-74178571D02*
X135587142Y-74178571D01*
X135730000Y-74250000D01*
X135872857Y-74392857D01*
X135944285Y-74678571D01*
X135944285Y-75178571D01*
X135872857Y-75464285D01*
X135730000Y-75607142D01*
X135587142Y-75678571D01*
X135301428Y-75678571D01*
X135158571Y-75607142D01*
X135015714Y-75464285D01*
X134944285Y-75178571D01*
X134944285Y-74678571D01*
X135015714Y-74392857D01*
X135158571Y-74250000D01*
X135301428Y-74178571D01*
X137444285Y-75678571D02*
X136944285Y-74964285D01*
X136587142Y-75678571D02*
X136587142Y-74178571D01*
X137158571Y-74178571D01*
X137301428Y-74250000D01*
X137372857Y-74321428D01*
X137444285Y-74464285D01*
X137444285Y-74678571D01*
X137372857Y-74821428D01*
X137301428Y-74892857D01*
X137158571Y-74964285D01*
X136587142Y-74964285D01*
X137872857Y-74178571D02*
X138730000Y-74178571D01*
X138301428Y-75678571D02*
X138301428Y-74178571D01*
X138872857Y-75821428D02*
X140015714Y-75821428D01*
X140301428Y-75250000D02*
X141015714Y-75250000D01*
X140158571Y-75678571D02*
X140658571Y-74178571D01*
X141158571Y-75678571D01*
X117642857Y-127014285D02*
X118242857Y-128814285D01*
X118842857Y-127014285D01*
X119014285Y-128985714D02*
X120385714Y-128985714D01*
X121157142Y-127014285D02*
X121500000Y-127014285D01*
X121671428Y-127100000D01*
X121842857Y-127271428D01*
X121928571Y-127614285D01*
X121928571Y-128214285D01*
X121842857Y-128557142D01*
X121671428Y-128728571D01*
X121500000Y-128814285D01*
X121157142Y-128814285D01*
X120985714Y-128728571D01*
X120814285Y-128557142D01*
X120728571Y-128214285D01*
X120728571Y-127614285D01*
X120814285Y-127271428D01*
X120985714Y-127100000D01*
X121157142Y-127014285D01*
X122700000Y-127014285D02*
X122700000Y-128471428D01*
X122785714Y-128642857D01*
X122871428Y-128728571D01*
X123042857Y-128814285D01*
X123385714Y-128814285D01*
X123557142Y-128728571D01*
X123642857Y-128642857D01*
X123728571Y-128471428D01*
X123728571Y-127014285D01*
X124328571Y-127014285D02*
X125357142Y-127014285D01*
X124842857Y-128814285D02*
X124842857Y-127014285D01*
D11*
X155166666Y-52558023D02*
X155166666Y-52081833D01*
X155452380Y-52653261D02*
X154452380Y-52319928D01*
X155452380Y-51986595D01*
X155547619Y-51891357D02*
X155547619Y-51129452D01*
X155452380Y-50891357D02*
X154452380Y-50891357D01*
X155452380Y-50415166D02*
X154452380Y-50415166D01*
X155452380Y-49843738D01*
X154452380Y-49843738D01*
X162952380Y-52664404D02*
X161952380Y-52664404D01*
X161952380Y-52426309D01*
X162000000Y-52283452D01*
X162095238Y-52188214D01*
X162190476Y-52140595D01*
X162380952Y-52092976D01*
X162523809Y-52092976D01*
X162714285Y-52140595D01*
X162809523Y-52188214D01*
X162904761Y-52283452D01*
X162952380Y-52426309D01*
X162952380Y-52664404D01*
X163047619Y-51902500D02*
X163047619Y-51140595D01*
X161952380Y-50712023D02*
X161952380Y-50521547D01*
X162000000Y-50426309D01*
X162095238Y-50331071D01*
X162285714Y-50283452D01*
X162619047Y-50283452D01*
X162809523Y-50331071D01*
X162904761Y-50426309D01*
X162952380Y-50521547D01*
X162952380Y-50712023D01*
X162904761Y-50807261D01*
X162809523Y-50902500D01*
X162619047Y-50950119D01*
X162285714Y-50950119D01*
X162095238Y-50902500D01*
X162000000Y-50807261D01*
X161952380Y-50712023D01*
X161952380Y-49854880D02*
X162761904Y-49854880D01*
X162857142Y-49807261D01*
X162904761Y-49759642D01*
X162952380Y-49664404D01*
X162952380Y-49473928D01*
X162904761Y-49378690D01*
X162857142Y-49331071D01*
X162761904Y-49283452D01*
X161952380Y-49283452D01*
X161952380Y-48950119D02*
X161952380Y-48378690D01*
X162952380Y-48664404D02*
X161952380Y-48664404D01*
X164785714Y-59178571D02*
X165119047Y-59178571D01*
X165261904Y-59702380D02*
X164785714Y-59702380D01*
X164785714Y-58702380D01*
X165261904Y-58702380D01*
D10*
X163408571Y-75678571D02*
X163408571Y-74178571D01*
X163980000Y-74178571D01*
X164122857Y-74250000D01*
X164194285Y-74321428D01*
X164265714Y-74464285D01*
X164265714Y-74678571D01*
X164194285Y-74821428D01*
X164122857Y-74892857D01*
X163980000Y-74964285D01*
X163408571Y-74964285D01*
X165194285Y-74178571D02*
X165480000Y-74178571D01*
X165622857Y-74250000D01*
X165765714Y-74392857D01*
X165837142Y-74678571D01*
X165837142Y-75178571D01*
X165765714Y-75464285D01*
X165622857Y-75607142D01*
X165480000Y-75678571D01*
X165194285Y-75678571D01*
X165051428Y-75607142D01*
X164908571Y-75464285D01*
X164837142Y-75178571D01*
X164837142Y-74678571D01*
X164908571Y-74392857D01*
X165051428Y-74250000D01*
X165194285Y-74178571D01*
X167337142Y-75678571D02*
X166837142Y-74964285D01*
X166480000Y-75678571D02*
X166480000Y-74178571D01*
X167051428Y-74178571D01*
X167194285Y-74250000D01*
X167265714Y-74321428D01*
X167337142Y-74464285D01*
X167337142Y-74678571D01*
X167265714Y-74821428D01*
X167194285Y-74892857D01*
X167051428Y-74964285D01*
X166480000Y-74964285D01*
X167765714Y-74178571D02*
X168622857Y-74178571D01*
X168194285Y-75678571D02*
X168194285Y-74178571D01*
X168765714Y-75821428D02*
X169908571Y-75821428D01*
X171122857Y-75535714D02*
X171051428Y-75607142D01*
X170837142Y-75678571D01*
X170694285Y-75678571D01*
X170480000Y-75607142D01*
X170337142Y-75464285D01*
X170265714Y-75321428D01*
X170194285Y-75035714D01*
X170194285Y-74821428D01*
X170265714Y-74535714D01*
X170337142Y-74392857D01*
X170480000Y-74250000D01*
X170694285Y-74178571D01*
X170837142Y-74178571D01*
X171051428Y-74250000D01*
X171122857Y-74321428D01*
D11*
X186745142Y-56020761D02*
X186792761Y-56068380D01*
X186840380Y-56211238D01*
X186840380Y-56306476D01*
X186792761Y-56449333D01*
X186697523Y-56544571D01*
X186602285Y-56592190D01*
X186411809Y-56639809D01*
X186268952Y-56639809D01*
X186078476Y-56592190D01*
X185983238Y-56544571D01*
X185888000Y-56449333D01*
X185840380Y-56306476D01*
X185840380Y-56211238D01*
X185888000Y-56068380D01*
X185935619Y-56020761D01*
X186554666Y-55639809D02*
X186554666Y-55163619D01*
X186840380Y-55735047D02*
X185840380Y-55401714D01*
X186840380Y-55068380D01*
X186840380Y-54735047D02*
X185840380Y-54735047D01*
X186840380Y-54163619D01*
X185840380Y-54163619D01*
X185935619Y-53735047D02*
X185888000Y-53687428D01*
X185840380Y-53592190D01*
X185840380Y-53354095D01*
X185888000Y-53258857D01*
X185935619Y-53211238D01*
X186030857Y-53163619D01*
X186126095Y-53163619D01*
X186268952Y-53211238D01*
X186840380Y-53782666D01*
X186840380Y-53163619D01*
X186935619Y-52973142D02*
X186935619Y-52211238D01*
X186840380Y-51496952D02*
X186840380Y-51973142D01*
X185840380Y-51973142D01*
D10*
X148408571Y-75678571D02*
X148408571Y-74178571D01*
X148980000Y-74178571D01*
X149122857Y-74250000D01*
X149194285Y-74321428D01*
X149265714Y-74464285D01*
X149265714Y-74678571D01*
X149194285Y-74821428D01*
X149122857Y-74892857D01*
X148980000Y-74964285D01*
X148408571Y-74964285D01*
X150194285Y-74178571D02*
X150480000Y-74178571D01*
X150622857Y-74250000D01*
X150765714Y-74392857D01*
X150837142Y-74678571D01*
X150837142Y-75178571D01*
X150765714Y-75464285D01*
X150622857Y-75607142D01*
X150480000Y-75678571D01*
X150194285Y-75678571D01*
X150051428Y-75607142D01*
X149908571Y-75464285D01*
X149837142Y-75178571D01*
X149837142Y-74678571D01*
X149908571Y-74392857D01*
X150051428Y-74250000D01*
X150194285Y-74178571D01*
X152337142Y-75678571D02*
X151837142Y-74964285D01*
X151480000Y-75678571D02*
X151480000Y-74178571D01*
X152051428Y-74178571D01*
X152194285Y-74250000D01*
X152265714Y-74321428D01*
X152337142Y-74464285D01*
X152337142Y-74678571D01*
X152265714Y-74821428D01*
X152194285Y-74892857D01*
X152051428Y-74964285D01*
X151480000Y-74964285D01*
X152765714Y-74178571D02*
X153622857Y-74178571D01*
X153194285Y-75678571D02*
X153194285Y-74178571D01*
X153765714Y-75821428D02*
X154908571Y-75821428D01*
X155765714Y-74892857D02*
X155980000Y-74964285D01*
X156051428Y-75035714D01*
X156122857Y-75178571D01*
X156122857Y-75392857D01*
X156051428Y-75535714D01*
X155980000Y-75607142D01*
X155837142Y-75678571D01*
X155265714Y-75678571D01*
X155265714Y-74178571D01*
X155765714Y-74178571D01*
X155908571Y-74250000D01*
X155980000Y-74321428D01*
X156051428Y-74464285D01*
X156051428Y-74607142D01*
X155980000Y-74750000D01*
X155908571Y-74821428D01*
X155765714Y-74892857D01*
X155265714Y-74892857D01*
D11*
X192285714Y-112073571D02*
X192619047Y-112073571D01*
X192761904Y-112597380D02*
X192285714Y-112597380D01*
X192285714Y-111597380D01*
X192761904Y-111597380D01*
X192238095Y-102042380D02*
X192238095Y-101042380D01*
X192476190Y-101042380D01*
X192619047Y-101090000D01*
X192714285Y-101185238D01*
X192761904Y-101280476D01*
X192809523Y-101470952D01*
X192809523Y-101613809D01*
X192761904Y-101804285D01*
X192714285Y-101899523D01*
X192619047Y-101994761D01*
X192476190Y-102042380D01*
X192238095Y-102042380D01*
X105893904Y-50862380D02*
X105893904Y-49862380D01*
X106132000Y-49862380D01*
X106274857Y-49910000D01*
X106370095Y-50005238D01*
X106417714Y-50100476D01*
X106465333Y-50290952D01*
X106465333Y-50433809D01*
X106417714Y-50624285D01*
X106370095Y-50719523D01*
X106274857Y-50814761D01*
X106132000Y-50862380D01*
X105893904Y-50862380D01*
X107417714Y-50862380D02*
X106846285Y-50862380D01*
X107132000Y-50862380D02*
X107132000Y-49862380D01*
X107036761Y-50005238D01*
X106941523Y-50100476D01*
X106846285Y-50148095D01*
X152042380Y-56063333D02*
X152756666Y-56063333D01*
X152899523Y-56110952D01*
X152994761Y-56206190D01*
X153042380Y-56349047D01*
X153042380Y-56444285D01*
X152042380Y-55682380D02*
X152042380Y-55015714D01*
X153042380Y-55444285D01*
X105888904Y-132015380D02*
X105888904Y-131015380D01*
X106127000Y-131015380D01*
X106269857Y-131063000D01*
X106365095Y-131158238D01*
X106412714Y-131253476D01*
X106460333Y-131443952D01*
X106460333Y-131586809D01*
X106412714Y-131777285D01*
X106365095Y-131872523D01*
X106269857Y-131967761D01*
X106127000Y-132015380D01*
X105888904Y-132015380D01*
X106841285Y-131110619D02*
X106888904Y-131063000D01*
X106984142Y-131015380D01*
X107222238Y-131015380D01*
X107317476Y-131063000D01*
X107365095Y-131110619D01*
X107412714Y-131205857D01*
X107412714Y-131301095D01*
X107365095Y-131443952D01*
X106793666Y-132015380D01*
X107412714Y-132015380D01*
X192809523Y-91502142D02*
X192761904Y-91549761D01*
X192619047Y-91597380D01*
X192523809Y-91597380D01*
X192380952Y-91549761D01*
X192285714Y-91454523D01*
X192238095Y-91359285D01*
X192190476Y-91168809D01*
X192190476Y-91025952D01*
X192238095Y-90835476D01*
X192285714Y-90740238D01*
X192380952Y-90645000D01*
X192523809Y-90597380D01*
X192619047Y-90597380D01*
X192761904Y-90645000D01*
X192809523Y-90692619D01*
X191738095Y-122090000D02*
X191642857Y-122042380D01*
X191500000Y-122042380D01*
X191357142Y-122090000D01*
X191261904Y-122185238D01*
X191214285Y-122280476D01*
X191166666Y-122470952D01*
X191166666Y-122613809D01*
X191214285Y-122804285D01*
X191261904Y-122899523D01*
X191357142Y-122994761D01*
X191500000Y-123042380D01*
X191595238Y-123042380D01*
X191738095Y-122994761D01*
X191785714Y-122947142D01*
X191785714Y-122613809D01*
X191595238Y-122613809D01*
X192214285Y-123042380D02*
X192214285Y-122042380D01*
X192785714Y-123042380D01*
X192785714Y-122042380D01*
X193261904Y-123042380D02*
X193261904Y-122042380D01*
X193500000Y-122042380D01*
X193642857Y-122090000D01*
X193738095Y-122185238D01*
X193785714Y-122280476D01*
X193833333Y-122470952D01*
X193833333Y-122613809D01*
X193785714Y-122804285D01*
X193738095Y-122899523D01*
X193642857Y-122994761D01*
X193500000Y-123042380D01*
X193261904Y-123042380D01*
X192571428Y-80073571D02*
X192714285Y-80121190D01*
X192761904Y-80168809D01*
X192809523Y-80264047D01*
X192809523Y-80406904D01*
X192761904Y-80502142D01*
X192714285Y-80549761D01*
X192619047Y-80597380D01*
X192238095Y-80597380D01*
X192238095Y-79597380D01*
X192571428Y-79597380D01*
X192666666Y-79645000D01*
X192714285Y-79692619D01*
X192761904Y-79787857D01*
X192761904Y-79883095D01*
X192714285Y-79978333D01*
X192666666Y-80025952D01*
X192571428Y-80073571D01*
X192238095Y-80073571D01*
X192261904Y-69756666D02*
X192738095Y-69756666D01*
X192166666Y-70042380D02*
X192500000Y-69042380D01*
X192833333Y-70042380D01*
D12*
X191170000Y-120885000D02*
X193830000Y-120885000D01*
X193830000Y-115745000D02*
X193830000Y-120885000D01*
X191170000Y-115745000D02*
X193830000Y-115745000D01*
X191170000Y-113145000D02*
X192500000Y-113145000D01*
X191170000Y-114475000D02*
X191170000Y-113145000D01*
X191170000Y-115745000D02*
X191170000Y-120885000D01*
X187730000Y-67500000D02*
G75*
G03*
X187730000Y-67500000I-5500000J0D01*
G01*
X191170000Y-103920000D02*
X191170000Y-102590000D01*
X191170000Y-105190000D02*
X191170000Y-110330000D01*
X193830000Y-105190000D02*
X193830000Y-110330000D01*
X191170000Y-105190000D02*
X193830000Y-105190000D01*
X191170000Y-102590000D02*
X192500000Y-102590000D01*
X191170000Y-110330000D02*
X193830000Y-110330000D01*
X104072000Y-52825000D02*
X104072000Y-55915000D01*
X104072000Y-55914830D02*
G75*
G03*
X109622000Y-54369538I2560000J1544830D01*
G01*
X109622000Y-54370462D02*
G75*
G03*
X104072000Y-52825170I-2990000J462D01*
G01*
X109132000Y-54370000D02*
G75*
G03*
X109132000Y-54370000I-2500000J0D01*
G01*
X111716000Y-67500000D02*
G75*
G03*
X111716000Y-67500000I-5500000J0D01*
G01*
X111716000Y-120000000D02*
G75*
G03*
X111716000Y-120000000I-5500000J0D01*
G01*
X126716000Y-85000000D02*
G75*
G03*
X126716000Y-85000000I-5500000J0D01*
G01*
X157730000Y-112500000D02*
G75*
G03*
X157730000Y-112500000I-5500000J0D01*
G01*
X142730000Y-82500000D02*
G75*
G03*
X142730000Y-82500000I-5500000J0D01*
G01*
X172730000Y-67500000D02*
G75*
G03*
X172730000Y-67500000I-5500000J0D01*
G01*
X172730000Y-97500000D02*
G75*
G03*
X172730000Y-97500000I-5500000J0D01*
G01*
X153590000Y-53130000D02*
X166410000Y-53130000D01*
X156190000Y-55730000D02*
X153590000Y-55730000D01*
X156190000Y-58330000D02*
X166410000Y-58330000D01*
X156190000Y-58330000D02*
X156190000Y-55730000D01*
X153590000Y-58330000D02*
X153590000Y-57000000D01*
X154920000Y-58330000D02*
X153590000Y-58330000D01*
X153590000Y-55730000D02*
X153590000Y-53130000D01*
X166410000Y-58330000D02*
X166410000Y-53130000D01*
X157730000Y-67500000D02*
G75*
G03*
X157730000Y-67500000I-5500000J0D01*
G01*
X187730000Y-97500000D02*
G75*
G03*
X187730000Y-97500000I-5500000J0D01*
G01*
X142730000Y-112500000D02*
G75*
G03*
X142730000Y-112500000I-5500000J0D01*
G01*
X104067000Y-133978000D02*
X104067000Y-137068000D01*
X109617000Y-135523462D02*
G75*
G03*
X104067000Y-133978170I-2990000J462D01*
G01*
X104067000Y-137067830D02*
G75*
G03*
X109617000Y-135522538I2560000J1544830D01*
G01*
X109127000Y-135523000D02*
G75*
G03*
X109127000Y-135523000I-2500000J0D01*
G01*
X126716000Y-67500000D02*
G75*
G03*
X126716000Y-67500000I-5500000J0D01*
G01*
X187730000Y-112500000D02*
G75*
G03*
X187730000Y-112500000I-5500000J0D01*
G01*
X126716000Y-102500000D02*
G75*
G03*
X126716000Y-102500000I-5500000J0D01*
G01*
X157730000Y-82500000D02*
G75*
G03*
X157730000Y-82500000I-5500000J0D01*
G01*
X157730000Y-97500000D02*
G75*
G03*
X157730000Y-97500000I-5500000J0D01*
G01*
X172730000Y-112500000D02*
G75*
G03*
X172730000Y-112500000I-5500000J0D01*
G01*
X142730000Y-67500000D02*
G75*
G03*
X142730000Y-67500000I-5500000J0D01*
G01*
X111716000Y-85000000D02*
G75*
G03*
X111716000Y-85000000I-5500000J0D01*
G01*
X191170000Y-93475000D02*
X191170000Y-92145000D01*
X191170000Y-92145000D02*
X192500000Y-92145000D01*
X191170000Y-94745000D02*
X191170000Y-99885000D01*
X191170000Y-94745000D02*
X193830000Y-94745000D01*
X191170000Y-99885000D02*
X193830000Y-99885000D01*
X193830000Y-94745000D02*
X193830000Y-99885000D01*
X193830000Y-126190000D02*
X193830000Y-133870000D01*
X191170000Y-133870000D02*
X193830000Y-133870000D01*
X191170000Y-126190000D02*
X191170000Y-133870000D01*
X191170000Y-123590000D02*
X192500000Y-123590000D01*
X191170000Y-124920000D02*
X191170000Y-123590000D01*
X191170000Y-126190000D02*
X193830000Y-126190000D01*
X172730000Y-82500000D02*
G75*
G03*
X172730000Y-82500000I-5500000J0D01*
G01*
X111716000Y-102500000D02*
G75*
G03*
X111716000Y-102500000I-5500000J0D01*
G01*
X191170000Y-83745000D02*
X193830000Y-83745000D01*
X191170000Y-88885000D02*
X193830000Y-88885000D01*
X193830000Y-83745000D02*
X193830000Y-88885000D01*
X191170000Y-83745000D02*
X191170000Y-88885000D01*
X191170000Y-82475000D02*
X191170000Y-81145000D01*
X191170000Y-81145000D02*
X192500000Y-81145000D01*
X191170000Y-59470000D02*
X191170000Y-67150000D01*
X191170000Y-58200000D02*
X191170000Y-56870000D01*
X193830000Y-59470000D02*
X193830000Y-67150000D01*
X191170000Y-59470000D02*
X193830000Y-59470000D01*
X191170000Y-56870000D02*
X192500000Y-56870000D01*
X191170000Y-67150000D02*
X193830000Y-67150000D01*
X187730000Y-82500000D02*
G75*
G03*
X187730000Y-82500000I-5500000J0D01*
G01*
X191170000Y-78330000D02*
X193830000Y-78330000D01*
X191170000Y-73190000D02*
X191170000Y-78330000D01*
X191170000Y-71920000D02*
X191170000Y-70590000D01*
X191170000Y-70590000D02*
X192500000Y-70590000D01*
X193830000Y-73190000D02*
X193830000Y-78330000D01*
X191170000Y-73190000D02*
X193830000Y-73190000D01*
X142730000Y-97500000D02*
G75*
G03*
X142730000Y-97500000I-5500000J0D01*
G01*
X126716000Y-120000000D02*
G75*
G03*
X126716000Y-120000000I-5500000J0D01*
G01*
%LPC*%
D13*
X192500000Y-114475000D03*
D14*
X192500000Y-117015000D03*
X192500000Y-119555000D03*
D15*
X182230000Y-67500000D03*
D13*
X192500000Y-103920000D03*
D14*
X192500000Y-106460000D03*
X192500000Y-109000000D03*
D16*
X105362000Y-54370000D03*
D17*
X107902000Y-54370000D03*
D15*
X106216000Y-67500000D03*
X106216000Y-120000000D03*
X121216000Y-85000000D03*
D18*
X192484000Y-49036000D03*
D15*
X152230000Y-112500000D03*
X137230000Y-82500000D03*
X167230000Y-67500000D03*
D18*
X100536000Y-49036000D03*
D15*
X167230000Y-97500000D03*
D13*
X154920000Y-57000000D03*
D14*
X154920000Y-54460000D03*
X157460000Y-57000000D03*
X157460000Y-54460000D03*
X160000000Y-57000000D03*
X160000000Y-54460000D03*
X162540000Y-57000000D03*
X162540000Y-54460000D03*
X165080000Y-57000000D03*
X165080000Y-54460000D03*
D15*
X152230000Y-67500000D03*
X182230000Y-97500000D03*
X137230000Y-112500000D03*
D16*
X105357000Y-135523000D03*
D17*
X107897000Y-135523000D03*
D15*
X121216000Y-67500000D03*
X182230000Y-112500000D03*
X121216000Y-102500000D03*
X152230000Y-82500000D03*
D18*
X192484000Y-140984000D03*
D15*
X152230000Y-97500000D03*
X167230000Y-112500000D03*
X137230000Y-67500000D03*
X106216000Y-85000000D03*
D13*
X192500000Y-93475000D03*
D14*
X192500000Y-96015000D03*
X192500000Y-98555000D03*
D13*
X192500000Y-124920000D03*
D14*
X192500000Y-127460000D03*
X192500000Y-130000000D03*
X192500000Y-132540000D03*
D15*
X167230000Y-82500000D03*
X106216000Y-102500000D03*
D13*
X192500000Y-82475000D03*
D14*
X192500000Y-85015000D03*
X192500000Y-87555000D03*
D13*
X192500000Y-58200000D03*
D14*
X192500000Y-60740000D03*
X192500000Y-63280000D03*
X192500000Y-65820000D03*
D18*
X100536000Y-140984000D03*
D15*
X182230000Y-82500000D03*
D13*
X192500000Y-71920000D03*
D14*
X192500000Y-74460000D03*
X192500000Y-77000000D03*
D15*
X137230000Y-97500000D03*
X121216000Y-120000000D03*
D19*
X124412000Y-56402000D03*
D20*
X124412000Y-48782000D03*
D21*
X140922000Y-139460000D03*
D22*
X143462000Y-139460000D03*
X146002000Y-139460000D03*
D23*
X116842800Y-93719800D03*
D24*
X114302800Y-93719800D03*
X111762800Y-93719800D03*
D21*
X175040000Y-50000000D03*
D22*
X172500000Y-50000000D03*
X169960000Y-50000000D03*
D13*
X183500000Y-124474000D03*
D14*
X180960000Y-124474000D03*
D19*
X129238000Y-81690000D03*
D20*
X129238000Y-89310000D03*
D13*
X138230000Y-124500000D03*
D14*
X135690000Y-124500000D03*
D21*
X186040000Y-50000000D03*
D22*
X183500000Y-50000000D03*
X180960000Y-50000000D03*
D19*
X124412000Y-133618000D03*
D20*
X124412000Y-141238000D03*
D25*
X113485000Y-137885000D03*
D26*
X118565000Y-137885000D03*
D13*
X169253400Y-124474000D03*
D14*
X166713400Y-124474000D03*
X164173400Y-124474000D03*
D21*
X136500000Y-50000000D03*
D22*
X133960000Y-50000000D03*
X131420000Y-50000000D03*
D21*
X147580000Y-50000000D03*
D22*
X145040000Y-50000000D03*
X142500000Y-50000000D03*
D21*
X171960000Y-139460000D03*
D22*
X174500000Y-139460000D03*
X177040000Y-139460000D03*
D13*
X154257000Y-124500000D03*
D14*
X151717000Y-124500000D03*
X149177000Y-124500000D03*
D25*
X118575000Y-52135000D03*
D26*
X113495000Y-52135000D03*
D19*
X121618000Y-93740000D03*
D20*
X129238000Y-93740000D03*
M02*
